<?xml version="1.0" encoding="utf-8"?>
<!-- Generator: Adobe Illustrator 28.2.0, SVG Export Plug-In . SVG Version: 6.00 Build 0)  -->
<svg version="1.1" id="Layer_1" xmlns="http://www.w3.org/2000/svg" xmlns:xlink="http://www.w3.org/1999/xlink" x="0px" y="0px"
	 viewBox="0 0 2539 693" style="enable-background:new 0 0 2539 693;" xml:space="preserve">
<style type="text/css">
	.st0{fill:#5900FF;}
	.st1{fill:#FFFFFF;}
</style>
<g>
	<path class="st1" d="M804.58,421.26c11.64-15.44,17.55-33.5,17.55-53.66c0-16.51-3.85-31.44-11.44-44.38
		c-7.6-12.96-19.22-23.38-34.52-30.97c-15.2-7.52-33.99-11.33-55.83-11.33h-94.85v290.55h43.11V455.11h40.23l67.78,116.37h51.47
		l-72.06-120.23C777.25,445.91,793.58,435.83,804.58,421.26z M777.79,367.6c0,15.7-4.78,28.39-14.21,37.7
		c-9.45,9.32-23.99,14.05-43.24,14.05H668.6V317.5h51.74c19.53,0,34.17,4.41,43.5,13.1C773.09,339.22,777.79,351.68,777.79,367.6z"
		/>
	<path class="st1" d="M904.08,254.79c-7.86,0-14.61,2.77-20.07,8.23c-5.46,5.45-8.23,12.2-8.23,20.07c0,7.87,2.77,14.62,8.23,20.06
		c5.45,5.46,12.2,8.23,20.06,8.23c7.61,0,14.17-2.78,19.48-8.25c5.3-5.44,7.99-12.18,7.99-20.03c0-7.85-2.69-14.59-7.99-20.04
		C918.23,257.57,911.68,254.79,904.08,254.79z"/>
	<rect x="881.91" y="341.78" class="st1" width="43.1" height="229.7"/>
	<path class="st1" d="M1118.36,452.85c-10.13-4.24-23.44-8.61-39.55-12.98c-12.65-3.5-22.65-6.7-29.71-9.5
		c-6.82-2.7-12.52-6.31-16.95-10.76c-4.22-4.22-6.27-9.47-6.27-16.07c0-8.32,3.47-14.88,10.61-20.05
		c7.35-5.32,17.48-8.01,30.11-8.01c13.65,0,24.62,3.35,32.6,9.94c8,6.61,12.26,15.14,13.01,26.09l0.19,2.77h43.07l-0.16-3.13
		c-1.13-22.55-9.74-40.58-25.58-53.61c-15.72-12.9-36.55-19.45-61.92-19.45c-16.39,0-31.22,2.9-44.09,8.62
		c-12.97,5.79-23.13,13.74-30.19,23.65c-7.15,10-10.77,21.16-10.77,33.17c0,15.09,4.01,27.48,11.93,36.82
		c7.74,9.17,17.17,16.17,28.05,20.83c10.48,4.5,24.29,9.02,41.07,13.43c17.87,4.53,31.24,9.17,39.73,13.81
		c7.75,4.25,11.52,10.54,11.52,19.23c0,8.63-3.62,15.6-11.08,21.33c-7.61,5.82-18.27,8.77-31.68,8.77
		c-14.53,0-26.35-3.37-35.16-10.01c-8.78-6.62-13.54-14.89-14.55-25.28l-0.26-2.68h-44.24l0.19,3.15
		c0.85,14.15,5.45,26.84,13.66,37.75c8.17,10.85,19.43,19.4,33.46,25.44h0c13.93,5.98,29.85,9.02,47.31,9.02
		c16.4,0,31.17-2.9,43.89-8.63c12.81-5.76,22.9-13.86,30.01-24.08c7.12-10.27,10.73-21.96,10.73-34.83
		c-0.29-14.24-4.3-26-11.94-34.95C1137.92,463.91,1128.83,457.25,1118.36,452.85z"/>
	<path class="st1" d="M1369.38,352.36c-16.72-9.46-36.17-14.26-57.81-14.26c-22.19,0-42.12,4.87-59.23,14.46
		c-17.18,9.63-30.69,23.56-40.17,41.42c-9.44,17.77-14.23,38.71-14.23,62.23c0,23.53,4.93,44.54,14.65,62.47
		c9.76,17.98,23.4,32.04,40.54,41.78c17.12,9.74,36.78,14.68,58.44,14.68c27.21,0,50.34-7,68.74-20.8
		c18.42-13.82,30.87-32,37.02-54.05l1.05-3.77h-46.05l-0.69,2c-4.13,11.86-11.38,21.47-21.55,28.55
		c-10.19,7.1-23.15,10.69-38.52,10.69c-18.76,0-34.92-5.99-48.03-17.81c-12.43-11.19-19.63-26.81-21.45-46.47h178.31l0.28-2.67
		c0.82-7.96,1.24-15.61,1.24-22.76c0-20.81-4.59-39.76-13.64-56.34C1399.21,375.09,1386.12,361.85,1369.38,352.36z M1242.59,437.32
		c2.29-18.86,9.46-33.86,21.36-44.64c12.57-11.41,28.04-17.19,45.98-17.19c12.54,0,24.11,2.57,34.41,7.66
		c10.19,5.03,18.36,12.48,24.31,22.17c5.5,8.98,8.49,19.74,8.91,32.01H1242.59z"/>
	<polygon class="st1" points="1443.69,317.1 1521.68,317.1 1521.68,571.47 1564.78,571.47 1564.78,317.1 1642.36,317.1 
		1642.36,280.93 1443.69,280.93 	"/>
	<path class="st1" d="M1818.1,352.36c-16.71-9.46-36.16-14.26-57.8-14.26c-22.19,0-42.12,4.87-59.23,14.46
		c-17.17,9.62-30.69,23.56-40.17,41.42c-9.44,17.77-14.23,38.71-14.23,62.23c0,23.53,4.93,44.54,14.65,62.47
		c9.76,17.98,23.4,32.04,40.54,41.78c17.12,9.74,36.78,14.68,58.44,14.68c27.21,0,50.34-7,68.74-20.8
		c18.42-13.82,30.87-32,37.02-54.05l1.05-3.77h-46.05l-0.69,2c-4.13,11.86-11.38,21.46-21.55,28.55
		c-10.19,7.1-23.15,10.69-38.52,10.69c-18.76,0-34.92-5.99-48.03-17.81c-12.43-11.2-19.63-26.82-21.44-46.47h178.31l0.28-2.67
		c0.82-7.94,1.24-15.6,1.24-22.76c0-20.81-4.59-39.77-13.64-56.34C1847.94,375.08,1834.85,361.85,1818.1,352.36z M1691.33,437.32
		c2.29-18.86,9.46-33.86,21.36-44.64c12.57-11.41,28.04-17.19,45.98-17.19c12.54,0,24.11,2.57,34.4,7.66
		c10.19,5.04,18.37,12.5,24.31,22.17c5.5,8.98,8.49,19.74,8.91,32.01H1691.33z"/>
	<path class="st1" d="M2080.41,495.81c-3.87,13.42-11.04,23.87-21.31,31.06c-10.3,7.23-23.46,10.89-39.12,10.89
		c-20.24,0-36.81-7.08-49.23-21.04c-12.51-14.08-18.85-34.44-18.85-60.5c0-25.8,6.34-45.94,18.84-59.88
		c12.43-13.84,29-20.85,49.24-20.85c15.61,0,28.83,3.8,39.3,11.29c10.41,7.45,17.51,17.76,21.12,30.64l0.61,2.17h46.05l-0.89-3.67
		c-5.86-24.26-18.11-43.5-36.42-57.21c-18.28-13.67-41.75-20.6-69.77-20.6c-21.67,0-41.2,4.94-58.05,14.69
		c-16.9,9.79-30.26,23.72-39.71,41.4c-9.45,17.63-14.24,38.5-14.24,62.03c0,23.79,4.79,44.87,14.23,62.64
		c9.47,17.84,22.83,31.83,39.72,41.6c16.85,9.75,36.38,14.69,58.05,14.69c27.5,0,50.77-7.14,69.17-21.22
		c18.42-14.09,30.87-33.12,37.01-56.54l0.98-3.73h-46.11L2080.41,495.81z"/>
	<path class="st1" d="M2372.32,382.53c-8.01-14.88-19.21-26.21-33.28-33.67c-13.99-7.42-29.85-11.18-47.13-11.18
		c-16.44,0-31.51,3.26-44.77,9.7c-10.43,5.04-19.19,11.79-26.16,20.13V263.38h-43.1v308.1h43.1V444.78
		c0-22.52,5.57-39.83,16.54-51.45c10.93-11.58,25.93-17.44,44.58-17.44c18.39,0,33.05,5.66,43.57,16.82
		c10.57,11.23,15.93,27.78,15.93,49.21v129.55h42.7V436.62C2384.32,415.54,2380.28,397.34,2372.32,382.53z"/>
	<polygon class="st1" points="108.68,210.38 378.58,312.64 334.13,479.71 544.84,185.54 421.2,103.85 	"/>
</g>
</svg>
