<?xml version="1.0" encoding="utf-8"?>
<!-- Generator: Adobe Illustrator 28.2.0, SVG Export Plug-In . SVG Version: 6.00 Build 0)  -->
<svg version="1.1" id="Layer_1" xmlns="http://www.w3.org/2000/svg" xmlns:xlink="http://www.w3.org/1999/xlink" x="0px" y="0px"
	 viewBox="0 0 2539 693" style="enable-background:new 0 0 2539 693;" xml:space="preserve">
<style type="text/css">
	.st0{fill:#5900FF;}
	.st1{fill:#FFFFFF;}
</style>
<g>
	<g>
		<path d="M805.61,422.4c11.91-15.8,17.95-34.26,17.95-54.86c0-16.87-3.94-32.14-11.71-45.39c-7.81-13.31-19.7-23.99-35.37-31.75
			c-15.48-7.66-34.55-11.55-56.7-11.55h-96.84V573.3h47.23V457.04h36.92l67.71,116.26h56.29l-72.46-120.89
			C779.02,446.79,794.8,436.72,805.61,422.4z M670.18,319.56h49.61c18.97,0,33.12,4.21,42.04,12.53
			c8.93,8.32,13.28,19.92,13.28,35.45c0,15.32-4.44,27.16-13.58,36.19c-9.03,8.91-23.08,13.44-41.74,13.44h-49.61V319.56z"/>
		<rect x="879.13" y="339.65" width="47.22" height="233.65"/>
		<path d="M903.36,252.75c-8.42,0-15.66,2.97-21.52,8.83c-5.86,5.86-8.83,13.1-8.83,21.52c0,8.43,2.97,15.66,8.82,21.51
			c5.85,5.86,13.09,8.83,21.53,8.83c8.19,0,15.24-2.99,20.95-8.88c5.69-5.84,8.58-13.06,8.58-21.47c0-8.4-2.88-15.62-8.57-21.47
			C918.59,255.74,911.53,252.75,903.36,252.75z"/>
		<path d="M1118.25,450.79c-10.2-4.27-23.59-8.67-39.77-13.05c-12.57-3.48-22.48-6.65-29.48-9.42c-6.54-2.59-12-6.05-16.23-10.29
			c-3.8-3.8-5.66-8.57-5.66-14.58c0-7.6,3.19-13.6,9.74-18.35c6.98-5.05,16.69-7.61,28.86-7.61c13.14,0,23.65,3.18,31.25,9.45
			c7.53,6.22,11.54,14.27,12.25,24.61l0.33,4.7h47.16l-0.26-5.3c-1.16-23.13-10.01-41.66-26.31-55.06
			c-16.09-13.21-37.35-19.9-63.18-19.9c-16.67,0-31.77,2.96-44.89,8.8c-13.3,5.93-23.73,14.11-31.01,24.32
			c-7.39,10.34-11.14,21.9-11.14,34.35c0,15.58,4.18,28.41,12.41,38.14c7.94,9.4,17.63,16.59,28.8,21.38
			c10.57,4.53,24.47,9.08,41.34,13.52c17.69,4.47,30.88,9.05,39.2,13.6c7.12,3.9,10.43,9.43,10.43,17.39
			c0,7.93-3.36,14.36-10.25,19.66c-7.23,5.53-17.46,8.33-30.39,8.33c-14.05,0-25.45-3.23-33.87-9.59
			c-8.28-6.24-12.77-14.03-13.72-23.8l-0.45-4.56h-48.29l0.32,5.35c0.88,14.55,5.61,27.62,14.07,38.85
			c8.38,11.13,19.91,19.9,34.27,26.08h0c14.19,6.09,30.37,9.18,48.09,9.18c16.68,0,31.72-2.97,44.71-8.81
			c13.14-5.91,23.52-14.24,30.84-24.78c7.36-10.62,11.09-22.7,11.09-36.02c-0.29-14.73-4.47-26.91-12.43-36.23
			C1138.35,462.16,1129,455.31,1118.25,450.79z"/>
		<path d="M1369.26,350.5c-17.03-9.64-36.8-14.52-58.79-14.52c-22.54,0-42.79,4.95-60.19,14.72c-17.51,9.8-31.29,24.01-40.96,42.22
			c-9.6,18.06-14.46,39.3-14.46,63.15c0,23.85,5.01,45.19,14.89,63.4c9.94,18.31,23.84,32.63,41.31,42.56
			c17.42,9.92,37.41,14.94,59.41,14.94c27.64,0,51.17-7.13,69.93-21.21c18.78-14.08,31.47-32.62,37.74-55.1l1.79-6.41h-50.23
			l-1.18,3.39c-3.98,11.43-10.96,20.67-20.75,27.49c-9.83,6.84-22.37,10.31-37.3,10.31c-18.47,0-33.7-5.65-46.59-17.27
			c-11.54-10.39-18.42-24.76-20.52-42.8h177.72l0.47-4.53c0.84-8.04,1.25-15.76,1.25-22.95c0-21.14-4.67-40.41-13.88-57.29
			C1399.67,373.67,1386.32,360.17,1369.26,350.5z M1243.94,435.11c2.52-17.24,9.35-31,20.37-40.98
			c12.34-11.2,26.91-16.65,44.53-16.65c12.21,0,23.46,2.5,33.45,7.43c9.83,4.86,17.71,12.05,23.44,21.38
			c4.99,8.13,7.84,17.8,8.49,28.82H1243.94z"/>
		<polygon points="1440.4,319.16 1518.31,319.16 1518.31,573.3 1565.53,573.3 1565.53,319.16 1643.03,319.16 1643.03,278.86 
			1440.4,278.86 		"/>
		<path d="M1817.57,350.5c-17.02-9.64-36.79-14.52-58.77-14.52c-22.54,0-42.79,4.95-60.19,14.72c-17.52,9.8-31.3,24.01-40.96,42.22
			c-9.59,18.06-14.46,39.31-14.46,63.15c0,23.86,5.01,45.19,14.89,63.4c9.94,18.31,23.84,32.63,41.3,42.56
			c17.42,9.92,37.41,14.94,59.41,14.94c27.64,0,51.17-7.13,69.92-21.21c18.78-14.09,31.48-32.62,37.74-55.1l1.79-6.41h-50.22
			l-1.18,3.39c-3.98,11.43-10.96,20.67-20.75,27.49c-9.83,6.84-22.37,10.31-37.29,10.31c-18.47,0-33.7-5.65-46.59-17.27
			c-11.54-10.39-18.43-24.77-20.52-42.8h177.72l0.47-4.53c0.84-8.04,1.25-15.76,1.25-22.95c0-21.14-4.67-40.41-13.88-57.29
			C1847.98,373.66,1834.63,360.17,1817.57,350.5z M1692.26,435.11c2.52-17.24,9.36-31,20.37-40.98
			c12.34-11.2,26.91-16.65,44.53-16.65c12.21,0,23.46,2.5,33.45,7.43c9.83,4.86,17.71,12.05,23.44,21.38
			c4.99,8.13,7.84,17.8,8.49,28.82H1692.26z"/>
		<path d="M2076.61,495.05c-3.78,13.12-10.48,22.9-20.49,29.9c-9.94,6.98-22.69,10.51-37.89,10.51c-19.88,0-35.46-6.65-47.62-20.32
			c-12.15-13.67-18.32-33.54-18.32-59.06c0-25.25,6.16-44.91,18.3-58.43c12.17-13.56,27.75-20.15,47.64-20.15
			c15.15,0,27.96,3.67,38.06,10.9c10.15,7.26,16.79,16.9,20.31,29.48l1.03,3.69h50.23l-1.51-6.23
			c-5.97-24.72-18.48-44.35-37.17-58.34c-18.63-13.93-42.5-21-70.95-21c-22.02,0-41.88,5.03-59.04,14.95
			c-17.23,9.98-30.84,24.17-40.47,42.18c-9.6,17.93-14.47,39.11-14.47,62.95c0,24.11,4.86,45.5,14.46,63.56
			c9.63,18.17,23.26,32.43,40.48,42.38c17.16,9.93,37.02,14.96,59.04,14.96c27.94,0,51.61-7.28,70.38-21.64
			c18.78-14.36,31.47-33.74,37.72-57.61l1.66-6.33h-50.33L2076.61,495.05z"/>
		<path d="M2372.09,381.46c-8.2-15.23-19.68-26.84-34.1-34.49c-14.29-7.57-30.46-11.41-48.06-11.41c-16.74,0-32.1,3.33-45.64,9.9
			c-8.93,4.31-16.67,9.86-23.15,16.56v-100.7h-47.21V573.3h47.21V444.65c0-21.95,5.37-38.76,15.97-49.97
			c10.66-11.29,24.74-16.78,43.02-16.78c18.02,0,31.76,5.29,42.02,16.15c10.19,10.82,15.35,26.88,15.35,47.74V573.3h46.82V436.49
			C2384.32,415.09,2380.21,396.57,2372.09,381.46z"/>
	</g>
	<g>
		<polygon class="st0" points="378.33,312.63 333.92,479.54 544.44,185.64 420.92,104.03 108.68,210.46 		"/>
	</g>
</g>
</svg>
